# xmcd
#
# Track frame offsets:
#	150
#	19247
#	36265
#	49685
#	71277
#	84432
#	100805
#	118660
#	135940
#	151230
#	171290
#	189700
#	208105
#	231905
#
# Disc length: 3318 seconds
#
# Revision: 1
# Processed by: cddbd v1.5.1PL2 Copyright (c) Steve Scherf et al.
# Submitted via: audiograbber 1.82.02
#
DISCID=b70cf40e
DTITLE=Dan Penn and Spooner Oldham - Moments From This Theatre
DYEAR=1999
DGENRE=Blues
TTITLE0=I'm Your Puppet
TTITLE1=Sweet Inspiration
TTITLE2=Cry Like A Baby
TTITLE3=Do Right Woman, Do Right Man
TTITLE4=I Met Her In Church
TTITLE5=Lonely Women Make Good Lovers
TTITLE6=It Tears Me Up
TTITLE7=The Dark End Of The Street
TTITLE8=You Left The Water Running
TTITLE9=Out Of Left Field
TTITLE10=Memphis Women And Chicken
TTITLE11=A Woman Left Lonely
TTITLE12=I'm Living Good
TTITLE13=Ol' Folks
EXTD=
EXTT0=
EXTT1=
EXTT2=
EXTT3=
EXTT4=
EXTT5=
EXTT6=
EXTT7=
EXTT8=
EXTT9=
EXTT10=
EXTT11=
EXTT12=
EXTT13=
PLAYORDER=
